# xmcd
#
# Track frame offsets:
#	150
#	18769
#	38975
#	56427
#	73181
#	91655
#	109097
#	126417
#	144879
#	158930
#	173060
#	188970
#	206698
#	220367
#	239063
#	259326
#	260649
#	262026
#
# Disc length: 3509 seconds
#
# Revision: 1
# Processed by: cddbd v1.5.2PL0 Copyright (c) Steve Scherf et al.
# Submitted via: EasyCDDAExtractor 7.0.3.1
#
DISCID=120db312
DTITLE=Various Artist - CDX 433 October 2007
DYEAR=2007
DGENRE=Country
TTITLE0=Martina McBride - For These Times
TTITLE1=Brad Paisley - Letter To Me
TTITLE2=Deana Carter - On the Road Again
TTITLE3=Travis Tritt - Something Stronger Than Me
TTITLE4=Flynnville Train - Tequila Sheila
TTITLE5=Jerrod Niemann - The One That Got Away
TTITLE6=Josh Gracin - We Weren't Crazy
TTITLE7=Chad Bradford - He Still Draws Them Together
TTITLE8=Riverbilly - Just the Way We Do It
TTITLE9=Ta'Veren - Laugh A Little
TTITLE10=Randy Archer - Mama Prayed For Me 
TTITLE11=Jernie Talles - Mamma's Little Girl
TTITLE12=Jason Thomas - My Old Man
TTITLE13=Walt Evans - Not On Earth
TTITLE14=Badbob and Jimmy - Posted Places
TTITLE15=Jennifer Hanson - NHTA Spots
TTITLE16=Jennifer Hanson - NHTA Spots
TTITLE17=Julie Roberts - CMA Award Show Spot
EXTD=
EXTT0=
EXTT1=
EXTT2=
EXTT3=
EXTT4=
EXTT5=
EXTT6=
EXTT7=
EXTT8=
EXTT9=
EXTT10=
EXTT11=
EXTT12=
EXTT13=
EXTT14=
EXTT15=
EXTT16=
EXTT17=
PLAYORDER=
